               ::::::::::: ::::    ::::      :::      :::::::: ::::::::::: ::::    ::: ::::::::::
                     :+:     +:+:+: :+:+:+   :+: :+:   :+:    :+:    :+:     :+:+:   :+: :+:        
                     +:+     +:+ +:+:+ +:+  +:+   +:+  +:+           +:+     :+:+:+  +:+ +:+        
                     +#+     +#+  +:+  +#+ +#++:++#++: :#:           +#+     +#+ +:+ +#+ +#++:++#  
                     +#+     +#+       +#+ +#+     +#+ +#+   +#+#    +#+     +#+  +#+#+# +#+        
                     #+#     #+#       #+# #+#     #+# #+#    #+#    #+#     #+#   #+#+# #+#        
                 ########### ###       ### ###     ###  ######## ########### ###    #### ##########  
                                               



                          Another Fine Release Brought to you from - IMAGiNE                  
                                             http://imaginegroup.me/  
   
********************************************************************************************************************                                
                                     The.Men Who Stare at Goats TS XviD  - IMAGiNE
********************************************************************************************************************

Ripper ...........: IMAGiNE                                        IMDB Rating.......:6.9/10                            
Video Codec.......: XVID                                         Release Date......:13/12/09
Audio Codec.......:MP3                                           Theatre Date......:06/10/09
Audio Bitrate.....:128                                              Runtime.......:1h 27mn
Subtitles.........:NIL                                                 Language..........:ENGLISH
Resolution...... 704 x 430                                 IMDb URL..........:http://www.imdb.com/title/tt1234548/


DETAILS:

Video
ID                               : 0
Format                           : MPEG-4 Visual
Format profile                   : AdvancedSimple@L5
Format settings, BVOP            : Yes
Format settings, QPel            : No
Format settings, GMC             : No warppoints
Format settings, Matrix          : Custom
Codec ID                         : XVID
Codec ID/Hint                    : XviD
Duration                         : 1h 27mn
Bit rate                         : 1 744 Kbps
Width                            : 704 pixels
Height                           : 430 pixels
Display aspect ratio             : 1.637
Frame rate                       : 25.000 fps
Resolution                       : 24 bits
Colorimetry                      : 4:2:0
Scan type                        : Progressive
Bits/(Pixel*Frame)               : 0.231
Stream size                      : 1.06 GiB (93%)
Writing library                  : XviD 1.2.1 (UTC 2008-12-04)

Audio
ID                               : 1
Format                           : MPEG Audio
Format version                   : Version 1
Format profile                   : Layer 3
Format_Settings_Mode             : Joint stereo
Codec ID                         : 55
Codec ID/Hint                    : MP3
Duration                         : 1h 27mn
Bit rate mode                    : Constant
Bit rate                         : 128 Kbps
Channel(s)                       : 2 channels
Sampling rate                    : 44.1 KHz
Resolution                       : 16 bits
Stream size                      : 79.9 MiB (7%)
Alignment                        : Aligned on interleaves
Interleave, duration             : 40 ms (1.00 video frame)
Interleave, preload duration     : 391 ms


NOTES:

IMAGiNE bringing you another release.....Men Who Stare at Goats
Yes this is a IMAGiNE release
we used the russian TS , but it was missing the first 4 minutes of the movie. For that we used our
"FAKE" release, you'll see the difference in the quality. The Audio is ours, its direct ... But
loike most of the sound lately theres flaws. Hopefully our "NEW" supply of audio will be as good as Fatals was.
You'll know when Avatars released. Till then , hey its free.

PS
yup blew the FR on that last one , for that I leave you this except from a peom I found

If life were perfect
Would we learn from out mistakes
If life were perfect
Would we give more than we take
If life were perfect
Would you still be stupid ....

SCREENS:



GREETS:

FLAWL3SS,ViSiON,DEViSE,FUSiON,STG,SecretMyth
And to all the other p2p grps past and present

Special thanks to Python-Lair for the server


Looking for these,syncers,cammer,silver supplier.....Have anything to offer????......
Contact us imaginegroup@hushmail.com